<?plantuml 1.2026.2?><svg xmlns="http://www.w3.org/2000/svg" xmlns:xlink="http://www.w3.org/1999/xlink" contentStyleType="text/css" data-diagram-type="DESCRIPTION" height="484px" preserveAspectRatio="none" style="width:305px;height:484px;background:#FFFFFF;" version="1.1" viewBox="0 0 305 484" width="305px" zoomAndPan="magnify"><defs/><g><!--cluster Astro Content Collections--><g class="cluster" data-qualified-name="Astro Content Collections" data-source-line="4" id="ent0002"><path d="M8.5,6 L194.7402,6 A3.75,3.75 0 0 1 197.2402,8.5 L204.2402,28.4883 L295.5,28.4883 A2.5,2.5 0 0 1 298,30.9883 L298,90.99 A2.5,2.5 0 0 1 295.5,93.49 L8.5,93.49 A2.5,2.5 0 0 1 6,90.99 L6,8.5 A2.5,2.5 0 0 1 8.5,6" fill="none" style="stroke:#000000;stroke-width:1.5;"/><line style="stroke:#000000;stroke-width:1.5;" x1="6" x2="204.2402" y1="28.4883" y2="28.4883"/><text fill="#000000" font-family="sans-serif" font-size="14" font-weight="bold" lengthAdjust="spacing" textLength="185.2402" x="10" y="21.5352">Astro Content Collections</text></g><!--cluster Loaders--><g class="cluster" data-qualified-name="Loaders" data-source-line="10" id="ent0006"><path d="M59.5,117.49 L117.5732,117.49 A3.75,3.75 0 0 1 120.0732,119.99 L127.0732,139.9783 L222.5,139.9783 A2.5,2.5 0 0 1 225,142.4783 L225,218.97 A2.5,2.5 0 0 1 222.5,221.47 L59.5,221.47 A2.5,2.5 0 0 1 57,218.97 L57,119.99 A2.5,2.5 0 0 1 59.5,117.49" fill="none" style="stroke:#000000;stroke-width:1.5;"/><line style="stroke:#000000;stroke-width:1.5;" x1="57" x2="127.0732" y1="139.9783" y2="139.9783"/><text fill="#000000" font-family="sans-serif" font-size="14" font-weight="bold" lengthAdjust="spacing" textLength="57.0732" x="61" y="133.0252">Loaders</text></g><!--cluster Validation--><g class="cluster" data-qualified-name="Validation" data-source-line="14" id="ent0008"><path d="M72.5,245.47 L146.4873,245.47 A3.75,3.75 0 0 1 148.9873,247.97 L155.9873,267.9583 L209.5,267.9583 A2.5,2.5 0 0 1 212,270.4583 L212,346.94 A2.5,2.5 0 0 1 209.5,349.44 L72.5,349.44 A2.5,2.5 0 0 1 70,346.94 L70,247.97 A2.5,2.5 0 0 1 72.5,245.47" fill="none" style="stroke:#000000;stroke-width:1.5;"/><line style="stroke:#000000;stroke-width:1.5;" x1="70" x2="155.9873" y1="267.9583" y2="267.9583"/><text fill="#000000" font-family="sans-serif" font-size="14" font-weight="bold" lengthAdjust="spacing" textLength="72.9873" x="74" y="261.0052">Validation</text></g><!--cluster Consumers--><g class="cluster" data-qualified-name="Consumers" data-source-line="18" id="ent0010"><path d="M51.5,373.44 L133.7793,373.44 A3.75,3.75 0 0 1 136.2793,375.94 L143.2793,395.9283 L230.5,395.9283 A2.5,2.5 0 0 1 233,398.4283 L233,474.92 A2.5,2.5 0 0 1 230.5,477.42 L51.5,477.42 A2.5,2.5 0 0 1 49,474.92 L49,375.94 A2.5,2.5 0 0 1 51.5,373.44" fill="none" style="stroke:#000000;stroke-width:1.5;"/><line style="stroke:#000000;stroke-width:1.5;" x1="49" x2="143.2793" y1="395.9283" y2="395.9283"/><text fill="#000000" font-family="sans-serif" font-size="14" font-weight="bold" lengthAdjust="spacing" textLength="81.2793" x="53" y="388.9752">Consumers</text></g><!--entity blog--><g class="entity" data-qualified-name="Astro Content Collections.blog" data-source-line="5" id="ent0003"><rect fill="#F1F1F1" height="36.4883" rx="2.5" ry="2.5" style="stroke:#181818;stroke-width:0.5;" width="50.1875" x="21.91" y="41"/><text fill="#000000" font-family="sans-serif" font-size="14" lengthAdjust="spacing" textLength="30.1875" x="31.91" y="64.5352">blog</text></g><!--entity journal--><g class="entity" data-qualified-name="Astro Content Collections.journal" data-source-line="6" id="ent0004"><rect fill="#F1F1F1" height="36.4883" rx="2.5" ry="2.5" style="stroke:#181818;stroke-width:0.5;" width="67.7422" x="107.13" y="41"/><text fill="#000000" font-family="sans-serif" font-size="14" lengthAdjust="spacing" textLength="47.7422" x="117.13" y="64.5352">journal</text></g><!--entity courses--><g class="entity" data-qualified-name="Astro Content Collections.courses" data-source-line="7" id="ent0005"><rect fill="#F1F1F1" height="36.4883" rx="2.5" ry="2.5" style="stroke:#181818;stroke-width:0.5;" width="72.2607" x="209.87" y="41"/><text fill="#000000" font-family="sans-serif" font-size="14" lengthAdjust="spacing" textLength="52.2607" x="219.87" y="64.5352">courses</text></g><!--entity loaders--><g class="entity" data-qualified-name="Loaders.loaders" data-source-line="11" id="ent0007"><rect fill="#F1F1F1" height="52.9766" rx="2.5" ry="2.5" style="stroke:#181818;stroke-width:0.5;" width="135.0352" x="73.48" y="152.49"/><text fill="#000000" font-family="sans-serif" font-size="14" lengthAdjust="spacing" textLength="84.4717" x="83.48" y="176.0252">glob loaders</text><text fill="#000000" font-family="sans-serif" font-size="14" lengthAdjust="spacing" textLength="115.0352" x="83.48" y="192.5134">content.config.ts</text></g><!--entity zod--><g class="entity" data-qualified-name="Validation.zod" data-source-line="15" id="ent0009"><rect fill="#F1F1F1" height="52.9766" rx="2.5" ry="2.5" style="stroke:#181818;stroke-width:0.5;" width="109.0381" x="86.48" y="280.47"/><text fill="#000000" font-family="sans-serif" font-size="14" lengthAdjust="spacing" textLength="89.0381" x="96.48" y="304.0052">Zod schemas</text><text fill="#000000" font-family="sans-serif" font-size="14" lengthAdjust="spacing" textLength="75.5371" x="96.48" y="320.4934">schemas.ts</text></g><!--entity pages--><g class="entity" data-qualified-name="Consumers.pages" data-source-line="19" id="ent0011"><rect fill="#F1F1F1" height="52.9766" rx="2.5" ry="2.5" style="stroke:#181818;stroke-width:0.5;" width="152.583" x="64.71" y="408.44"/><text fill="#000000" font-family="sans-serif" font-size="14" lengthAdjust="spacing" textLength="132.583" x="74.71" y="431.9752">MD and MDX pages</text><text fill="#000000" font-family="sans-serif" font-size="14" lengthAdjust="spacing" textLength="67.5869" x="74.71" y="448.4634">src/pages</text></g><!--link blog to loaders--><g class="link" data-entity-1="ent0003" data-entity-2="ent0007" data-link-type="dependency" data-source-line="22" id="lnk12"><path d="M68.4,77.76 C68.4,111.47 68.4,179.42 68.4,179.42 C68.4,179.42 64.17,179.42 67.16,179.42" fill="none" id="blog-to-loaders" style="stroke:#181818;stroke-width:1;"/><polygon fill="#181818" points="73.16,179.42,64.16,175.42,68.16,179.42,64.16,183.42,73.16,179.42" style="stroke:#181818;stroke-width:1;"/></g><!--link journal to loaders--><g class="link" data-entity-1="ent0004" data-entity-2="ent0007" data-link-type="dependency" data-source-line="23" id="lnk13"><path d="M141,77.95 C141,97.95 141,123.81 141,146.41" fill="none" id="journal-to-loaders" style="stroke:#181818;stroke-width:1;"/><polygon fill="#181818" points="141,152.41,145,143.41,141,147.41,137,143.41,141,152.41" style="stroke:#181818;stroke-width:1;"/></g><!--link courses to loaders--><g class="link" data-entity-1="ent0005" data-entity-2="ent0007" data-link-type="dependency" data-source-line="24" id="lnk14"><path d="M213.58,77.76 C213.58,111.47 213.58,179.42 213.58,179.42 C213.58,179.42 217.81,179.42 214.82,179.42" fill="none" id="courses-to-loaders" style="stroke:#181818;stroke-width:1;"/><polygon fill="#181818" points="208.82,179.42,217.82,183.42,213.82,179.42,217.82,175.42,208.82,179.42" style="stroke:#181818;stroke-width:1;"/></g><!--link loaders to zod--><g class="link" data-entity-1="ent0007" data-entity-2="ent0009" data-link-type="dependency" data-source-line="25" id="lnk15"><path d="M141,205.81 C141,227.65 141,252.33 141,274.16" fill="none" id="loaders-to-zod" style="stroke:#181818;stroke-width:1;"/><polygon fill="#181818" points="141,280.16,145,271.16,141,275.16,137,271.16,141,280.16" style="stroke:#181818;stroke-width:1;"/></g><!--link zod to pages--><g class="link" data-entity-1="ent0009" data-entity-2="ent0011" data-link-type="dependency" data-source-line="26" id="lnk16"><path d="M141,333.78 C141,355.62 141,380.31 141,402.14" fill="none" id="zod-to-pages" style="stroke:#181818;stroke-width:1;stroke-dasharray:7,7;"/><polygon fill="#181818" points="141,408.14,145,399.14,141,403.14,137,399.14,141,408.14" style="stroke:#181818;stroke-width:1;"/><text fill="#000000" font-family="sans-serif" font-size="13" lengthAdjust="spacing" textLength="75.6704" x="65" y="367.5284">typed props</text></g><?plantuml-src LP4_JmCn3CNtV0ghUu-TeHAY8vsG4EBFu2OcFUgBepWT2kAxa-JImWsHdrxYdvyLFOuXOi89h4nH0eNycCzCaCXc39x9wFK9Zu7oEH98oWSn9g8zeYTOtMbE0lSISkalbRbqZn9q1Ty6u7NFujy15QgengUSKa1kNjVLjaKgQRExDZ__vZm8EaeNgcVP0y_MMx3pzA7KZz4FUQRqwmNb2NbqMFDrq8iuK7kW2GkdYmlWIzoYkIoff-aln6uB61pijiyGouCAIFQcoTRVL2NKrM6ztbmZzRqNNbzwuVNQl9gc71Y6pKo6MwW_uY0cYMf-0G00?></g></svg>