<?plantuml 1.2026.2?><svg xmlns="http://www.w3.org/2000/svg" xmlns:xlink="http://www.w3.org/1999/xlink" contentStyleType="text/css" data-diagram-type="DESCRIPTION" height="289px" preserveAspectRatio="none" style="width:1995px;height:289px;background:#FFFFFF;" version="1.1" viewBox="0 0 1995 289" width="1995px" zoomAndPan="magnify"><defs/><g><!--cluster Stripe--><g class="cluster" data-qualified-name="Stripe" data-source-line="3" id="ent0002"><path d="M31.5,78.7615 L74.5684,78.7615 A3.75,3.75 0 0 1 77.0684,81.2615 L84.0684,101.2497 L585.5,101.2497 A2.5,2.5 0 0 1 588,103.7497 L588,173.7515 A2.5,2.5 0 0 1 585.5,176.2515 L31.5,176.2515 A2.5,2.5 0 0 1 29,173.7515 L29,81.2615 A2.5,2.5 0 0 1 31.5,78.7615" fill="none" style="stroke:#000000;stroke-width:1.5;"/><line style="stroke:#000000;stroke-width:1.5;" x1="29" x2="84.0684" y1="101.2497" y2="101.2497"/><text fill="#000000" font-family="sans-serif" font-size="14" font-weight="bold" lengthAdjust="spacing" textLength="42.0684" x="33" y="94.2966">Stripe</text></g><!--cluster Certificates--><g class="cluster" data-qualified-name="Certificates" data-source-line="8" id="ent0005"><path d="M946.5,78.7615 L1030.0986,78.7615 A3.75,3.75 0 0 1 1032.5986,81.2615 L1039.5986,101.2497 L1406.5,101.2497 A2.5,2.5 0 0 1 1409,103.7497 L1409,280.2415 A2.5,2.5 0 0 1 1406.5,282.7415 L946.5,282.7415 A2.5,2.5 0 0 1 944,280.2415 L944,81.2615 A2.5,2.5 0 0 1 946.5,78.7615" fill="none" style="stroke:#000000;stroke-width:1.5;"/><line style="stroke:#000000;stroke-width:1.5;" x1="944" x2="1039.5986" y1="101.2497" y2="101.2497"/><text fill="#000000" font-family="sans-serif" font-size="14" font-weight="bold" lengthAdjust="spacing" textLength="82.5986" x="948" y="94.2966">Certificates</text></g><!--cluster Crypto (stub)--><g class="cluster" data-qualified-name="Crypto .stub." data-source-line="14" id="ent0009"><path d="M1435.5,78.7615 L1531.9434,78.7615 A3.75,3.75 0 0 1 1534.4434,81.2615 L1541.4434,101.2497 L1736.5,101.2497 A2.5,2.5 0 0 1 1739,103.7497 L1739,280.2415 A2.5,2.5 0 0 1 1736.5,282.7415 L1435.5,282.7415 A2.5,2.5 0 0 1 1433,280.2415 L1433,81.2615 A2.5,2.5 0 0 1 1435.5,78.7615" fill="none" style="stroke:#000000;stroke-width:1.5;"/><line style="stroke:#000000;stroke-width:1.5;" x1="1433" x2="1541.4434" y1="101.2497" y2="101.2497"/><text fill="#000000" font-family="sans-serif" font-size="14" font-weight="bold" lengthAdjust="spacing" textLength="95.4434" x="1437" y="94.2966">Crypto (stub)</text></g><!--entity wh--><g class="entity" data-qualified-name="Stripe.wh" data-source-line="4" id="ent0003"><rect fill="#F1F1F1" height="46.4883" rx="2.5" ry="2.5" style="stroke:#181818;stroke-width:0.5;" width="222.2803" x="44.86" y="113.7615"/><rect fill="#F1F1F1" height="10" style="stroke:#181818;stroke-width:0.5;" width="15" x="247.1403" y="118.7615"/><rect fill="#F1F1F1" height="2" style="stroke:#181818;stroke-width:0.5;" width="4" x="245.1403" y="120.7615"/><rect fill="#F1F1F1" height="2" style="stroke:#181818;stroke-width:0.5;" width="4" x="245.1403" y="124.7615"/><text fill="#000000" font-family="sans-serif" font-size="14" lengthAdjust="spacing" textLength="182.2803" x="59.86" y="147.2966">POST /api/stripe/webhook</text></g><!--entity cp--><g class="entity" data-qualified-name="Stripe.cp" data-source-line="5" id="ent0004"><rect fill="#F1F1F1" height="46.4883" rx="2.5" ry="2.5" style="stroke:#181818;stroke-width:0.5;" width="269.0313" x="302.48" y="113.7615"/><rect fill="#F1F1F1" height="10" style="stroke:#181818;stroke-width:0.5;" width="15" x="551.5113" y="118.7615"/><rect fill="#F1F1F1" height="2" style="stroke:#181818;stroke-width:0.5;" width="4" x="549.5113" y="120.7615"/><rect fill="#F1F1F1" height="2" style="stroke:#181818;stroke-width:0.5;" width="4" x="549.5113" y="124.7615"/><text fill="#000000" font-family="sans-serif" font-size="14" lengthAdjust="spacing" textLength="229.0313" x="317.48" y="147.2966">POST /api/stripe/create-payment</text></g><!--entity getcert--><g class="entity" data-qualified-name="Certificates.getcert" data-source-line="9" id="ent0006"><rect fill="#F1F1F1" height="46.4883" rx="2.5" ry="2.5" style="stroke:#181818;stroke-width:0.5;" width="173.376" x="960.31" y="113.7615"/><rect fill="#F1F1F1" height="10" style="stroke:#181818;stroke-width:0.5;" width="15" x="1113.686" y="118.7615"/><rect fill="#F1F1F1" height="2" style="stroke:#181818;stroke-width:0.5;" width="4" x="1111.686" y="120.7615"/><rect fill="#F1F1F1" height="2" style="stroke:#181818;stroke-width:0.5;" width="4" x="1111.686" y="124.7615"/><text fill="#000000" font-family="sans-serif" font-size="14" lengthAdjust="spacing" textLength="133.376" x="975.31" y="147.2966">GET /api/certificate</text></g><!--entity issue--><g class="entity" data-qualified-name="Certificates.issue" data-source-line="10" id="ent0007"><rect fill="#F1F1F1" height="46.4883" rx="2.5" ry="2.5" style="stroke:#181818;stroke-width:0.5;" width="224.7344" x="1168.63" y="113.7615"/><rect fill="#F1F1F1" height="10" style="stroke:#181818;stroke-width:0.5;" width="15" x="1373.3644" y="118.7615"/><rect fill="#F1F1F1" height="2" style="stroke:#181818;stroke-width:0.5;" width="4" x="1371.3644" y="120.7615"/><rect fill="#F1F1F1" height="2" style="stroke:#181818;stroke-width:0.5;" width="4" x="1371.3644" y="124.7615"/><text fill="#000000" font-family="sans-serif" font-size="14" lengthAdjust="spacing" textLength="184.7344" x="1183.63" y="147.2966">POST /api/certificate-issue</text></g><!--entity gen--><g class="entity" data-qualified-name="Certificates.gen" data-source-line="11" id="ent0008"><rect fill="#F1F1F1" height="46.4883" rx="2.5" ry="2.5" style="stroke:#181818;stroke-width:0.5;" width="198.0605" x="959.97" y="220.2515"/><rect fill="#F1F1F1" height="10" style="stroke:#181818;stroke-width:0.5;" width="15" x="1138.0305" y="225.2515"/><rect fill="#F1F1F1" height="2" style="stroke:#181818;stroke-width:0.5;" width="4" x="1136.0305" y="227.2515"/><rect fill="#F1F1F1" height="2" style="stroke:#181818;stroke-width:0.5;" width="4" x="1136.0305" y="231.2515"/><text fill="#000000" font-family="sans-serif" font-size="14" lengthAdjust="spacing" textLength="158.0605" x="974.97" y="253.7866">certificate-generator.ts</text></g><!--entity cryptocp--><g class="entity" data-qualified-name="Crypto .stub..cryptocp" data-source-line="15" id="ent0010"><rect fill="#F1F1F1" height="46.4883" rx="2.5" ry="2.5" style="stroke:#181818;stroke-width:0.5;" width="273.1328" x="1449.43" y="113.7615"/><rect fill="#F1F1F1" height="10" style="stroke:#181818;stroke-width:0.5;" width="15" x="1702.5628" y="118.7615"/><rect fill="#F1F1F1" height="2" style="stroke:#181818;stroke-width:0.5;" width="4" x="1700.5628" y="120.7615"/><rect fill="#F1F1F1" height="2" style="stroke:#181818;stroke-width:0.5;" width="4" x="1700.5628" y="124.7615"/><text fill="#000000" font-family="sans-serif" font-size="14" lengthAdjust="spacing" textLength="233.1328" x="1464.43" y="147.2966">POST /api/crypto/create-payment</text></g><!--entity qr--><g class="entity" data-qualified-name="Crypto .stub..qr" data-source-line="16" id="ent0011"><rect fill="#F1F1F1" height="46.4883" rx="2.5" ry="2.5" style="stroke:#181818;stroke-width:0.5;" width="171.0039" x="1500.5" y="220.2515"/><rect fill="#F1F1F1" height="10" style="stroke:#181818;stroke-width:0.5;" width="15" x="1651.5039" y="225.2515"/><rect fill="#F1F1F1" height="2" style="stroke:#181818;stroke-width:0.5;" width="4" x="1649.5039" y="227.2515"/><rect fill="#F1F1F1" height="2" style="stroke:#181818;stroke-width:0.5;" width="4" x="1649.5039" y="231.2515"/><text fill="#000000" font-family="sans-serif" font-size="14" lengthAdjust="spacing" textLength="131.0039" x="1515.5" y="253.7866">GET /api/crypto/qr</text></g><!--entity stripe--><g class="entity" data-qualified-name="stripe" data-source-line="19" id="ent0012"><path d="M104.5847,17.0029 C108.5455,10.3148 112.3775,10.0612 117.3169,16.0174 C119.5333,9.6423 125.4008,8.0684 129.5765,14.0779 C133.7279,7.4929 138.8362,8.2288 143.2199,13.8176 C147.1568,6.0819 152.5229,6.538 157.9253,12.2103 C162.9648,7.2878 166.6283,7.4546 169.7692,14.1463 C175.0151,8.1857 181.0299,7.8665 184.7455,15.7963 C187.571,10.4735 193.282,10.1424 196.4206,15.4525 C200.754,8.5517 207.4075,10.1271 210.4173,16.8158 C218.6463,19.8405 218.2594,25.1611 212.8047,30.5623 C219.3602,35.636 218.3553,43.3038 210.2073,45.8851 C207.7867,54.5796 202.1448,55.2663 195.9478,49.6472 C192.9897,54.5952 187.5869,54.7078 184.729,49.5361 C181.9816,58.0076 176.0521,58.4651 170.1371,52.8075 C166.9148,59.9863 161.7222,59.6746 157.2391,54.0807 C153.0786,59.222 146.9137,58.5507 143.9062,52.6842 C138.6336,57.4493 134.44,57.8946 130.6339,51.013 C124.8818,57.2764 120.0961,55.4224 116.3014,48.8307 C111.7471,53.2997 106.7664,52.3919 104.0509,46.629 C95.804,43.232 94.1142,38.9375 100.742,32.1428 C95.007,26.4631 96.1363,19.0827 104.5847,17.0029" fill="#F1F1F1" style="stroke:#181818;stroke-width:0.5;"/><text fill="#000000" font-family="sans-serif" font-size="14" lengthAdjust="spacing" textLength="92.1689" x="109.92" y="35.8166">Stripe servers</text></g><!--entity donor--><g class="entity" data-qualified-name="donor" data-source-line="20" id="ent0013"><path d="M1225.3257,16.7458 C1227.3047,10.6128 1232.5124,11.0614 1236.0948,15.0378 C1240.357,9.6905 1244.2945,10.2477 1247.7304,15.9109 C1250.5325,11.1659 1255.1343,10.3349 1258.5395,15.2351 C1261.2506,9.1997 1267.0665,7.1967 1271.6213,13.2379 C1274.4241,7.9666 1277.8549,7.6596 1281.4334,12.4839 C1286.0092,6 1291.9463,8.6651 1294.461,14.6392 C1297.7826,9.5635 1302.5038,9.8844 1305.6435,14.842 C1309.0593,9.0738 1314.1527,8.9512 1317.6102,14.799 C1321.253,10.1617 1324.733,11.0561 1327.7954,15.4534 C1331.9409,9.8069 1336.7046,9.4572 1340.2897,16.0267 C1349.6044,17.4842 1352.5129,22.2895 1347.3738,30.7171 C1351.4007,39.6699 1349.6163,46.0339 1338.8982,47.572 C1336.5733,53.7215 1332.4578,53.3874 1328.3475,49.4372 C1326.2952,55.1975 1320.943,55.5877 1317.5789,50.7729 C1313.7735,56.964 1308.9245,57.4054 1304.2978,51.689 C1302.3458,59.0509 1298.7702,60.062 1292.9689,55.2799 C1289.6314,60.9278 1285.6488,60.9612 1281.9238,55.6712 C1278.0846,61.4102 1273.2208,60.3783 1269.7419,55.2666 C1265.5908,58.7995 1261.6699,57.723 1260.0456,52.4761 C1255.9236,56.766 1250.836,56.0913 1248.5995,50.3292 C1243.2472,56.1501 1238.4447,54.6756 1235.4784,47.8531 C1232.0331,52.1584 1227.4519,51.6404 1224.8263,46.889 C1215.7756,45.9073 1212.5065,41.1338 1215.7228,32.4291 C1211.8202,22.9869 1214.2273,17.0028 1225.3257,16.7458" fill="#F1F1F1" style="stroke:#181818;stroke-width:0.5;"/><text fill="#000000" font-family="sans-serif" font-size="14" lengthAdjust="spacing" textLength="101.124" x="1230.44" y="35.8166">Donor browser</text></g><g class="entity" data-qualified-name="GMN20" data-source-line="33" id="ent0021"><path d="M606.64,116.7015 L606.64,157.3226 L925.3641,157.3226 L925.3641,126.7015 L915.3641,116.7015 L606.64,116.7015" fill="#FEFFDD" style="stroke:#181818;stroke-width:0.5;"/><path d="M915.3641,116.7015 L915.3641,126.7015 L925.3641,126.7015 L915.3641,116.7015" fill="#FEFFDD" style="stroke:#181818;stroke-width:1;"/><text fill="#000000" font-family="sans-serif" font-size="13" lengthAdjust="spacing" textLength="148.2876" x="612.64" y="134.2698">SEC-01: constructEvent</text><text fill="#000000" font-family="sans-serif" font-size="13" lengthAdjust="spacing" textLength="297.7241" x="612.64" y="149.5804">verify signature with STRIPE_WEBHOOK_SECRET</text></g><g class="entity" data-qualified-name="GMN23" data-source-line="38" id="ent0024"><path d="M1757.39,124.3515 L1757.39,149.662 L1988.6117,149.662 L1988.6117,134.3515 L1978.6117,124.3515 L1757.39,124.3515" fill="#FEFFDD" style="stroke:#181818;stroke-width:0.5;"/><path d="M1978.6117,124.3515 L1978.6117,134.3515 L1988.6117,134.3515 L1978.6117,124.3515" fill="#FEFFDD" style="stroke:#181818;stroke-width:1;"/><text fill="#000000" font-family="sans-serif" font-size="13" lengthAdjust="spacing" textLength="210.2217" x="1763.39" y="141.9198">SEC-02: certificate signing secret</text></g><!--link stripe to wh--><g class="link" data-entity-1="ent0012" data-entity-2="ent0003" data-link-type="dependency" data-source-line="22" id="lnk14"><path d="M156,54.1515 C156,71.8015 156,89.8115 156,107.4415" fill="none" id="stripe-to-wh" style="stroke:#181818;stroke-width:1;"/><polygon fill="#181818" points="156,113.4415,160,104.4415,156,108.4415,152,104.4415,156,113.4415" style="stroke:#181818;stroke-width:1;"/><text fill="#000000" font-family="sans-serif" font-size="13" lengthAdjust="spacing" textLength="148.0591" x="7" y="80.3698">signed webhook events</text></g><!--link donor to getcert--><g class="link" data-entity-1="ent0013" data-entity-2="ent0006" data-link-type="dependency" data-source-line="24" id="lnk15"><path d="M1214.97,30.7415 C1155.02,30.7415 1075.9,30.7415 1075.9,30.7415 C1075.9,30.7415 1075.9,76.1215 1075.9,107.4215" fill="none" id="donor-to-getcert" style="stroke:#181818;stroke-width:1;"/><polygon fill="#181818" points="1075.9,113.4215,1079.9,104.4215,1075.9,108.4215,1071.9,104.4215,1075.9,113.4215" style="stroke:#181818;stroke-width:1;"/><text fill="#000000" font-family="sans-serif" font-size="13" lengthAdjust="spacing" textLength="101.0356" x="1002.09" y="27.3098">HMAC sig query</text></g><!--link getcert to gen--><g class="link" data-entity-1="ent0006" data-entity-2="ent0008" data-link-type="dependency" data-source-line="25" id="lnk16"><path d="M1047,160.6415 C1047,178.2915 1047,196.3015 1047,213.9315" fill="none" id="getcert-to-gen" style="stroke:#181818;stroke-width:1;"/><polygon fill="#181818" points="1047,219.9315,1051,210.9315,1047,214.9315,1043,210.9315,1047,219.9315" style="stroke:#181818;stroke-width:1;"/><text fill="#000000" font-family="sans-serif" font-size="13" lengthAdjust="spacing" textLength="112.0996" x="934" y="186.8498">render PDF/HTML</text></g><!--link donor to issue--><g class="link" data-entity-1="ent0013" data-entity-2="ent0007" data-link-type="dependency" data-source-line="27" id="lnk17"><path d="M1281,54.1515 C1281,71.8015 1281,89.8115 1281,107.4415" fill="none" id="donor-to-issue" style="stroke:#181818;stroke-width:1;"/><polygon fill="#181818" points="1281,113.4415,1285,104.4415,1281,108.4415,1277,104.4415,1281,113.4415" style="stroke:#181818;stroke-width:1;"/><text fill="#000000" font-family="sans-serif" font-size="13" lengthAdjust="spacing" textLength="189.6934" x="1282" y="80.3698">dev-only issuance (if enabled)</text></g><!--link donor to cryptocp--><g class="link" data-entity-1="ent0013" data-entity-2="ent0010" data-link-type="dependency" data-source-line="29" id="lnk18"><path d="M1346.8,30.7415 C1436.47,30.7415 1586,30.7415 1586,30.7415 C1586,30.7415 1586,76.1215 1586,107.4215" fill="none" id="donor-to-cryptocp" style="stroke:#181818;stroke-width:1;"/><polygon fill="#181818" points="1586,113.4215,1590,104.4215,1586,108.4215,1582,104.4215,1586,113.4215" style="stroke:#181818;stroke-width:1;"/><text fill="#000000" font-family="sans-serif" font-size="13" lengthAdjust="spacing" textLength="86.3154" x="1420.74" y="27.3098">stub payment</text></g><!--link cryptocp to qr--><g class="link" data-entity-1="ent0010" data-entity-2="ent0011" data-link-type="dependency" data-source-line="30" id="lnk19"><path d="M1586,160.6415 C1586,178.2915 1586,196.3015 1586,213.9315" fill="none" id="cryptocp-to-qr" style="stroke:#181818;stroke-width:1;stroke-dasharray:7,7;"/><polygon fill="#181818" points="1586,219.9315,1590,210.9315,1586,214.9315,1582,210.9315,1586,219.9315" style="stroke:#181818;stroke-width:1;"/><text fill="#000000" font-family="sans-serif" font-size="13" lengthAdjust="spacing" textLength="74.2104" x="1511" y="186.8498">optional QR</text></g><!--link wh to GMN20--><g class="link" data-entity-1="ent0003" data-entity-2="ent0021" data-link-type="association" data-source-line="33" id="lnk22"><path d="M242.11,113.3515 C242.11,103.2515 242.11,93.7415 242.11,93.7415 C242.11,93.7415 766,93.7415 766,93.7415 C766,93.7415 766,105.2415 766,116.3915" fill="none" id="wh-GMN20" style="stroke:#181818;stroke-width:1;stroke-dasharray:7,7;"/></g><!--link getcert to GMN23--><g class="link" data-entity-1="ent0006" data-entity-2="ent0024" data-link-type="association" data-source-line="38" id="lnk25"><path d="M1018.1,113.4515 C1018.1,95.4615 1018.1,73.7415 1018.1,73.7415 C1018.1,73.7415 1873,73.7415 1873,73.7415 C1873,73.7415 1873,105.3715 1873,123.9015" fill="none" id="getcert-GMN23" style="stroke:#181818;stroke-width:1;stroke-dasharray:7,7;"/></g><?plantuml-src RP91ZzCm48Nl_XMZFUqUqWB7FQm4tK0Hh5hQIXmGMhdEDB6QjTtnf5M4-EzCd9Ici3ThtkUPUS-EU-k29lq2jNN8RK3mn9LNAcYproN2pPh91ho1NmhWntAnti1K1pkDgJmzuRRoVlyJT8HJzIfY23LZ5dJxWeuJQOBwFHenGsAxiqQmE0pwb0zDp4LBLqlahdGzQGHbDiQcHzEf0yToYGv9iwS9nw6Xkrw6si0URYCtsxl_R9kalkefAUBiQliUFr123jHDChLlYdEk496EI69Rz3wmC_3edIVOaZy9a_IYgoZLOv1b3n8vt4EqfSC2XgS0FCfAKQb49sh8JD3vq_jPnyEXGMhLMUWX9m2XAv1W-VXnEjyyVHrtIN4AKk0nywvkKq4xWt1hTu1ERsiixiOtpf5qEqgQCCIb_jOdamS9HMGVs7gdQ_YsKifvHY1RLWn-r_-gTJxBthoz1-ETk6yCvvr94IGxksjJ19eRGZXPhc2zMNrUvi_Vym_pnUBBiznUvHibrg3h_U-4ovTAOzx9cCk7IQsjA-MXvD7vqkGF?></g></svg>