<?plantuml 1.2026.2?><svg xmlns="http://www.w3.org/2000/svg" xmlns:xlink="http://www.w3.org/1999/xlink" contentStyleType="text/css" data-diagram-type="DESCRIPTION" height="340px" preserveAspectRatio="none" style="width:3458px;height:340px;background:#FFFFFF;" version="1.1" viewBox="0 0 3458 340" width="3458px" zoomAndPan="magnify"><title>src/pages/api - HTTP routes (22 TypeScript entrypoints)</title><defs/><g><g class="title" data-source-line="4"><text fill="#000000" font-family="sans-serif" font-size="14" font-weight="bold" lengthAdjust="spacing" textLength="412.8496" x="1515.792" y="23.5352">src/pages/api - HTTP routes (22 TypeScript entrypoints)</text></g><!--cluster core_pkg--><g class="cluster" data-qualified-name="core_pkg" data-source-line="6" id="ent0002"><rect fill="#E8F4FC" height="97.49" rx="2.5" ry="2.5" style="stroke:#181818;stroke-width:1;" width="1077" x="7" y="122.2393"/><text fill="#000000" font-family="sans-serif" font-size="14" font-weight="bold" lengthAdjust="spacing" textLength="125.8291" x="482.5854" y="137.7745">Core integrations</text></g><!--cluster Stripe--><g class="cluster" data-qualified-name="Stripe" data-source-line="14" id="ent0008"><rect fill="#E8FCE8" height="97.49" rx="2.5" ry="2.5" style="stroke:#181818;stroke-width:1;" width="559" x="1108" y="122.2393"/><text fill="#000000" font-family="sans-serif" font-size="14" font-weight="bold" lengthAdjust="spacing" textLength="42.0684" x="1366.4658" y="137.7745">Stripe</text></g><!--cluster Crypto (stub)--><g class="cluster" data-qualified-name="Crypto .stub." data-source-line="19" id="ent0011"><rect fill="#FFF8E8" height="97.49" rx="2.5" ry="2.5" style="stroke:#181818;stroke-width:1;" width="512" x="1691" y="122.2393"/><text fill="#000000" font-family="sans-serif" font-size="14" font-weight="bold" lengthAdjust="spacing" textLength="95.4434" x="1899.2783" y="137.7745">Crypto (stub)</text></g><!--cluster Donations--><g class="cluster" data-qualified-name="Donations" data-source-line="24" id="ent0014"><rect fill="#FCE8F8" height="97.49" rx="2.5" ry="2.5" style="stroke:#181818;stroke-width:1;" width="214" x="2227" y="122.2393"/><text fill="#000000" font-family="sans-serif" font-size="14" font-weight="bold" lengthAdjust="spacing" textLength="73.7461" x="2297.127" y="137.7745">Donations</text></g><!--cluster demo_stub--><g class="cluster" data-qualified-name="demo_stub" data-source-line="28" id="ent0016"><rect fill="#F0F0F0" height="219.98" rx="2.5" ry="2.5" style="stroke:#181818;stroke-width:1;" width="676" x="2473" y="114.2393"/><text fill="#000000" font-family="sans-serif" font-size="14" font-weight="bold" lengthAdjust="spacing" textLength="105.9775" x="2758.0112" y="129.7745">Demo stub UIs</text></g><!--entity contact--><g class="entity" data-qualified-name="core_pkg.contact" data-source-line="7" id="ent0003"><rect fill="#F1F1F1" height="46.4883" rx="2.5" ry="2.5" style="stroke:#181818;stroke-width:0.5;" width="164.5439" x="22.73" y="157.2393"/><rect fill="#F1F1F1" height="10" style="stroke:#181818;stroke-width:0.5;" width="15" x="167.2739" y="162.2393"/><rect fill="#F1F1F1" height="2" style="stroke:#181818;stroke-width:0.5;" width="4" x="165.2739" y="164.2393"/><rect fill="#F1F1F1" height="2" style="stroke:#181818;stroke-width:0.5;" width="4" x="165.2739" y="168.2393"/><text fill="#000000" font-family="sans-serif" font-size="14" lengthAdjust="spacing" textLength="124.5439" x="37.73" y="190.7745">POST /api/contact</text></g><!--entity search--><g class="entity" data-qualified-name="core_pkg.search" data-source-line="8" id="ent0004"><rect fill="#F1F1F1" height="46.4883" rx="2.5" ry="2.5" style="stroke:#181818;stroke-width:0.5;" width="150.5166" x="222.74" y="157.2393"/><rect fill="#F1F1F1" height="10" style="stroke:#181818;stroke-width:0.5;" width="15" x="353.2566" y="162.2393"/><rect fill="#F1F1F1" height="2" style="stroke:#181818;stroke-width:0.5;" width="4" x="351.2566" y="164.2393"/><rect fill="#F1F1F1" height="2" style="stroke:#181818;stroke-width:0.5;" width="4" x="351.2566" y="168.2393"/><text fill="#000000" font-family="sans-serif" font-size="14" lengthAdjust="spacing" textLength="110.5166" x="237.74" y="190.7745">GET /api/search</text></g><!--entity cert--><g class="entity" data-qualified-name="core_pkg.cert" data-source-line="9" id="ent0005"><rect fill="#F1F1F1" height="46.4883" rx="2.5" ry="2.5" style="stroke:#181818;stroke-width:0.5;" width="173.376" x="408.31" y="157.2393"/><rect fill="#F1F1F1" height="10" style="stroke:#181818;stroke-width:0.5;" width="15" x="561.686" y="162.2393"/><rect fill="#F1F1F1" height="2" style="stroke:#181818;stroke-width:0.5;" width="4" x="559.686" y="164.2393"/><rect fill="#F1F1F1" height="2" style="stroke:#181818;stroke-width:0.5;" width="4" x="559.686" y="168.2393"/><text fill="#000000" font-family="sans-serif" font-size="14" lengthAdjust="spacing" textLength="133.376" x="423.31" y="190.7745">GET /api/certificate</text></g><!--entity certissue--><g class="entity" data-qualified-name="core_pkg.certissue" data-source-line="10" id="ent0006"><rect fill="#F1F1F1" height="46.4883" rx="2.5" ry="2.5" style="stroke:#181818;stroke-width:0.5;" width="224.7344" x="616.63" y="157.2393"/><rect fill="#F1F1F1" height="10" style="stroke:#181818;stroke-width:0.5;" width="15" x="821.3644" y="162.2393"/><rect fill="#F1F1F1" height="2" style="stroke:#181818;stroke-width:0.5;" width="4" x="819.3644" y="164.2393"/><rect fill="#F1F1F1" height="2" style="stroke:#181818;stroke-width:0.5;" width="4" x="819.3644" y="168.2393"/><text fill="#000000" font-family="sans-serif" font-size="14" lengthAdjust="spacing" textLength="184.7344" x="631.63" y="190.7745">POST /api/certificate-issue</text></g><!--entity portfolio--><g class="entity" data-qualified-name="core_pkg.portfolio" data-source-line="11" id="ent0007"><rect fill="#F1F1F1" height="46.4883" rx="2.5" ry="2.5" style="stroke:#181818;stroke-width:0.5;" width="191.3887" x="876.31" y="157.2393"/><rect fill="#F1F1F1" height="10" style="stroke:#181818;stroke-width:0.5;" width="15" x="1047.6987" y="162.2393"/><rect fill="#F1F1F1" height="2" style="stroke:#181818;stroke-width:0.5;" width="4" x="1045.6987" y="164.2393"/><rect fill="#F1F1F1" height="2" style="stroke:#181818;stroke-width:0.5;" width="4" x="1045.6987" y="168.2393"/><text fill="#000000" font-family="sans-serif" font-size="14" lengthAdjust="spacing" textLength="151.3887" x="891.31" y="190.7745">GET /api/portfolio.md</text></g><!--entity stripe_wh--><g class="entity" data-qualified-name="Stripe.stripe_wh" data-source-line="15" id="ent0009"><rect fill="#F1F1F1" height="46.4883" rx="2.5" ry="2.5" style="stroke:#181818;stroke-width:0.5;" width="222.2803" x="1123.86" y="157.2393"/><rect fill="#F1F1F1" height="10" style="stroke:#181818;stroke-width:0.5;" width="15" x="1326.1403" y="162.2393"/><rect fill="#F1F1F1" height="2" style="stroke:#181818;stroke-width:0.5;" width="4" x="1324.1403" y="164.2393"/><rect fill="#F1F1F1" height="2" style="stroke:#181818;stroke-width:0.5;" width="4" x="1324.1403" y="168.2393"/><text fill="#000000" font-family="sans-serif" font-size="14" lengthAdjust="spacing" textLength="182.2803" x="1138.86" y="190.7745">POST /api/stripe/webhook</text></g><!--entity stripe_pay--><g class="entity" data-qualified-name="Stripe.stripe_pay" data-source-line="16" id="ent0010"><rect fill="#F1F1F1" height="46.4883" rx="2.5" ry="2.5" style="stroke:#181818;stroke-width:0.5;" width="269.0313" x="1381.48" y="157.2393"/><rect fill="#F1F1F1" height="10" style="stroke:#181818;stroke-width:0.5;" width="15" x="1630.5113" y="162.2393"/><rect fill="#F1F1F1" height="2" style="stroke:#181818;stroke-width:0.5;" width="4" x="1628.5113" y="164.2393"/><rect fill="#F1F1F1" height="2" style="stroke:#181818;stroke-width:0.5;" width="4" x="1628.5113" y="168.2393"/><text fill="#000000" font-family="sans-serif" font-size="14" lengthAdjust="spacing" textLength="229.0313" x="1396.48" y="190.7745">POST /api/stripe/create-payment</text></g><!--entity crypto_pay--><g class="entity" data-qualified-name="Crypto .stub..crypto_pay" data-source-line="20" id="ent0012"><rect fill="#F1F1F1" height="46.4883" rx="2.5" ry="2.5" style="stroke:#181818;stroke-width:0.5;" width="273.1328" x="1707.43" y="157.2393"/><rect fill="#F1F1F1" height="10" style="stroke:#181818;stroke-width:0.5;" width="15" x="1960.5628" y="162.2393"/><rect fill="#F1F1F1" height="2" style="stroke:#181818;stroke-width:0.5;" width="4" x="1958.5628" y="164.2393"/><rect fill="#F1F1F1" height="2" style="stroke:#181818;stroke-width:0.5;" width="4" x="1958.5628" y="168.2393"/><text fill="#000000" font-family="sans-serif" font-size="14" lengthAdjust="spacing" textLength="233.1328" x="1722.43" y="190.7745">POST /api/crypto/create-payment</text></g><!--entity crypto_qr--><g class="entity" data-qualified-name="Crypto .stub..crypto_qr" data-source-line="21" id="ent0013"><rect fill="#F1F1F1" height="46.4883" rx="2.5" ry="2.5" style="stroke:#181818;stroke-width:0.5;" width="171.0039" x="2015.5" y="157.2393"/><rect fill="#F1F1F1" height="10" style="stroke:#181818;stroke-width:0.5;" width="15" x="2166.5039" y="162.2393"/><rect fill="#F1F1F1" height="2" style="stroke:#181818;stroke-width:0.5;" width="4" x="2164.5039" y="164.2393"/><rect fill="#F1F1F1" height="2" style="stroke:#181818;stroke-width:0.5;" width="4" x="2164.5039" y="168.2393"/><text fill="#000000" font-family="sans-serif" font-size="14" lengthAdjust="spacing" textLength="131.0039" x="2030.5" y="190.7745">GET /api/crypto/qr</text></g><!--entity donations--><g class="entity" data-qualified-name="Donations.donations" data-source-line="25" id="ent0015"><rect fill="#F1F1F1" height="46.4883" rx="2.5" ry="2.5" style="stroke:#181818;stroke-width:0.5;" width="182.249" x="2242.88" y="157.2393"/><rect fill="#F1F1F1" height="10" style="stroke:#181818;stroke-width:0.5;" width="15" x="2405.129" y="162.2393"/><rect fill="#F1F1F1" height="2" style="stroke:#181818;stroke-width:0.5;" width="4" x="2403.129" y="164.2393"/><rect fill="#F1F1F1" height="2" style="stroke:#181818;stroke-width:0.5;" width="4" x="2403.129" y="168.2393"/><text fill="#000000" font-family="sans-serif" font-size="14" lengthAdjust="spacing" textLength="142.249" x="2257.88" y="190.7745">POST /api/donations</text></g><!--entity ai_ty--><g class="entity" data-qualified-name="demo_stub.ai_ty" data-source-line="29" id="ent0017"><rect fill="#F1F1F1" height="46.4883" rx="2.5" ry="2.5" style="stroke:#181818;stroke-width:0.5;" width="131.1094" x="2974.45" y="157.2393"/><rect fill="#F1F1F1" height="10" style="stroke:#181818;stroke-width:0.5;" width="15" x="3085.5594" y="162.2393"/><rect fill="#F1F1F1" height="2" style="stroke:#181818;stroke-width:0.5;" width="4" x="3083.5594" y="164.2393"/><rect fill="#F1F1F1" height="2" style="stroke:#181818;stroke-width:0.5;" width="4" x="3083.5594" y="168.2393"/><text fill="#000000" font-family="sans-serif" font-size="14" lengthAdjust="spacing" textLength="91.1094" x="2989.45" y="190.7745">ai-thank-you</text></g><!--entity bug--><g class="entity" data-qualified-name="demo_stub.bug" data-source-line="30" id="ent0018"><rect fill="#F1F1F1" height="46.4883" rx="2.5" ry="2.5" style="stroke:#181818;stroke-width:0.5;" width="121.6689" x="2497.17" y="157.2393"/><rect fill="#F1F1F1" height="10" style="stroke:#181818;stroke-width:0.5;" width="15" x="2598.8389" y="162.2393"/><rect fill="#F1F1F1" height="2" style="stroke:#181818;stroke-width:0.5;" width="4" x="2596.8389" y="164.2393"/><rect fill="#F1F1F1" height="2" style="stroke:#181818;stroke-width:0.5;" width="4" x="2596.8389" y="168.2393"/><text fill="#000000" font-family="sans-serif" font-size="14" lengthAdjust="spacing" textLength="81.6689" x="2512.17" y="190.7745">bug-bounty</text></g><!--entity term--><g class="entity" data-qualified-name="demo_stub.term" data-source-line="31" id="ent0019"><rect fill="#F1F1F1" height="46.4883" rx="2.5" ry="2.5" style="stroke:#181818;stroke-width:0.5;" width="96.3486" x="2653.83" y="157.2393"/><rect fill="#F1F1F1" height="10" style="stroke:#181818;stroke-width:0.5;" width="15" x="2730.1786" y="162.2393"/><rect fill="#F1F1F1" height="2" style="stroke:#181818;stroke-width:0.5;" width="4" x="2728.1786" y="164.2393"/><rect fill="#F1F1F1" height="2" style="stroke:#181818;stroke-width:0.5;" width="4" x="2728.1786" y="168.2393"/><text fill="#000000" font-family="sans-serif" font-size="14" lengthAdjust="spacing" textLength="56.3486" x="2668.83" y="190.7745">terminal</text></g><!--entity learn--><g class="entity" data-qualified-name="demo_stub.learn" data-source-line="32" id="ent0020"><rect fill="#F1F1F1" height="46.4883" rx="2.5" ry="2.5" style="stroke:#181818;stroke-width:0.5;" width="154.6387" x="2784.68" y="157.2393"/><rect fill="#F1F1F1" height="10" style="stroke:#181818;stroke-width:0.5;" width="15" x="2919.3187" y="162.2393"/><rect fill="#F1F1F1" height="2" style="stroke:#181818;stroke-width:0.5;" width="4" x="2917.3187" y="164.2393"/><rect fill="#F1F1F1" height="2" style="stroke:#181818;stroke-width:0.5;" width="4" x="2917.3187" y="168.2393"/><text fill="#000000" font-family="sans-serif" font-size="14" lengthAdjust="spacing" textLength="114.6387" x="2799.68" y="190.7745">learning-journey</text></g><!--entity auction--><g class="entity" data-qualified-name="demo_stub.auction" data-source-line="33" id="ent0021"><rect fill="#F1F1F1" height="46.4883" rx="2.5" ry="2.5" style="stroke:#181818;stroke-width:0.5;" width="90.1621" x="2512.92" y="263.7293"/><rect fill="#F1F1F1" height="10" style="stroke:#181818;stroke-width:0.5;" width="15" x="2583.0821" y="268.7293"/><rect fill="#F1F1F1" height="2" style="stroke:#181818;stroke-width:0.5;" width="4" x="2581.0821" y="270.7293"/><rect fill="#F1F1F1" height="2" style="stroke:#181818;stroke-width:0.5;" width="4" x="2581.0821" y="274.7293"/><text fill="#000000" font-family="sans-serif" font-size="14" lengthAdjust="spacing" textLength="50.1621" x="2527.92" y="297.2645">auction</text></g><!--entity roadmap--><g class="entity" data-qualified-name="demo_stub.roadmap" data-source-line="34" id="ent0022"><rect fill="#F1F1F1" height="46.4883" rx="2.5" ry="2.5" style="stroke:#181818;stroke-width:0.5;" width="100.4844" x="2637.76" y="263.7293"/><rect fill="#F1F1F1" height="10" style="stroke:#181818;stroke-width:0.5;" width="15" x="2718.2444" y="268.7293"/><rect fill="#F1F1F1" height="2" style="stroke:#181818;stroke-width:0.5;" width="4" x="2716.2444" y="270.7293"/><rect fill="#F1F1F1" height="2" style="stroke:#181818;stroke-width:0.5;" width="4" x="2716.2444" y="274.7293"/><text fill="#000000" font-family="sans-serif" font-size="14" lengthAdjust="spacing" textLength="60.4844" x="2652.76" y="297.2645">roadmap</text></g><!--entity client--><g class="entity" data-qualified-name="client" data-source-line="37" id="ent0023"><path d="M1300.5363,52.1997 C1304.9095,46.0417 1309.0606,47.0583 1312.8435,52.8098 C1316.8036,45.8622 1320.9087,46.2652 1325.7218,51.9394 C1329.4411,46.6996 1333.8468,45.7956 1337.4845,52.0232 C1341.287,45.1474 1346.2282,43.4883 1351.7169,50.2655 C1355.6043,44.9825 1359.0109,45.3917 1362.6018,50.5739 C1365.8386,43.7225 1372.2958,43.8192 1376.2532,49.8076 C1380.0288,43.9262 1384.936,44.09 1388.501,50.0257 C1392.9943,43.6463 1398.5023,44.8007 1402.403,50.6968 C1405.4251,45.0586 1410.9781,46.4454 1413.675,51.0545 C1417.9232,44.7481 1424.2717,45.8137 1427.0925,52.5257 C1430.5176,46.3309 1436.4067,47.5494 1439.2638,53.1137 C1443.0458,46.268 1447.8991,46.5689 1452.5339,52.2071 C1460.4218,55.6595 1462.3777,62.3435 1455.8995,68.7234 C1462.0975,75.0048 1458.6019,81.5545 1451.1473,83.4219 C1448.3144,90.2616 1443.4057,90.5064 1438.5151,85.643 C1434.977,91.1846 1430.247,91.2942 1426.1292,86.3261 C1423.864,93.9174 1417.905,93.6668 1413.012,89.1799 C1409.8113,95.9491 1404.9082,96.163 1400.8881,89.9448 C1397.8946,95.7364 1392.0642,97.7038 1387.854,91.2386 C1385.448,97.9633 1382.0693,98.4379 1377.0122,93.7591 C1371.2105,100.7776 1366.6755,99.4575 1362.5767,92.0547 C1358.493,97.3977 1353.6411,96.4313 1351.4001,90.2653 C1346.5081,95.6717 1342.5898,96.2313 1338.9527,89.0267 C1333.4734,95.8773 1328.5813,93.7247 1324.9981,87.0677 C1320.6515,92.2612 1316.1763,91.3131 1312.9643,85.7933 C1309.1545,90.2319 1303.489,89.8691 1301.0753,84.158 C1290.9361,82.7203 1287.522,77.4149 1292.8588,68.0721 C1287.8133,60.3085 1289.7834,52.3218 1300.5363,52.1997" fill="#F1F1F1" style="stroke:#181818;stroke-width:0.5;"/><text fill="#000000" font-family="sans-serif" font-size="14" lengthAdjust="spacing" textLength="137.375" x="1306.31" y="72.2945">Client / integrations</text></g><g class="entity" data-qualified-name="GMN32" data-source-line="48" id="ent0033"><path d="M3172.56,266.6693 L3172.56,307.2904 L3451.4335,307.2904 L3451.4335,276.6693 L3441.4335,266.6693 L3172.56,266.6693" fill="#FEFFDD" style="stroke:#181818;stroke-width:0.5;"/><path d="M3441.4335,266.6693 L3441.4335,276.6693 L3451.4335,276.6693 L3441.4335,266.6693" fill="#FEFFDD" style="stroke:#181818;stroke-width:1;"/><text fill="#000000" font-family="sans-serif" font-size="13" lengthAdjust="spacing" textLength="190.4741" x="3178.56" y="284.2377">Low-trust or demo endpoints;</text><text fill="#000000" font-family="sans-serif" font-size="13" lengthAdjust="spacing" textLength="257.8735" x="3178.56" y="299.5482">see CONCERNS.md in planning codebase</text></g><!--link client to contact--><g class="link" data-entity-1="ent0023" data-entity-2="ent0003" data-link-type="dependency" data-source-line="38" id="lnk24"><path d="M1291.18,55.2193 C1008.08,55.2193 105,55.2193 105,55.2193 C105,55.2193 105,114.6393 105,150.9293" fill="none" id="client-to-contact" style="stroke:#181818;stroke-width:1;"/><polygon fill="#181818" points="105,156.9293,109,147.9293,105,151.9293,101,147.9293,105,156.9293" style="stroke:#181818;stroke-width:1;"/></g><!--link client to search--><g class="link" data-entity-1="ent0023" data-entity-2="ent0004" data-link-type="dependency" data-source-line="39" id="lnk25"><path d="M1290.94,67.2193 C1037.47,67.2193 298,67.2193 298,67.2193 C298,67.2193 298,117.8393 298,151.0193" fill="none" id="client-to-search" style="stroke:#181818;stroke-width:1;"/><polygon fill="#181818" points="298,157.0193,302,148.0193,298,152.0193,294,148.0193,298,157.0193" style="stroke:#181818;stroke-width:1;"/></g><!--link client to cert--><g class="link" data-entity-1="ent0023" data-entity-2="ent0005" data-link-type="dependency" data-source-line="40" id="lnk26"><path d="M1291.02,78.2193 C1071.06,78.2193 495,78.2193 495,78.2193 C495,78.2193 495,120.5593 495,150.7693" fill="none" id="client-to-cert" style="stroke:#181818;stroke-width:1;"/><polygon fill="#181818" points="495,156.7693,499,147.7693,495,151.7693,491,147.7693,495,156.7693" style="stroke:#181818;stroke-width:1;"/></g><!--link client to stripe_wh--><g class="link" data-entity-1="ent0023" data-entity-2="ent0009" data-link-type="dependency" data-source-line="41" id="lnk27"><path d="M1318.73,90.5093 C1318.73,109.9893 1318.73,131.5293 1318.73,150.9993" fill="none" id="client-to-stripe_wh" style="stroke:#181818;stroke-width:1;"/><polygon fill="#181818" points="1318.73,156.9993,1322.73,147.9993,1318.73,151.9993,1314.73,147.9993,1318.73,156.9993" style="stroke:#181818;stroke-width:1;"/></g><!--link client to stripe_pay--><g class="link" data-entity-1="ent0023" data-entity-2="ent0010" data-link-type="dependency" data-source-line="42" id="lnk28"><path d="M1420.09,90.5093 C1420.09,109.9893 1420.09,131.5293 1420.09,150.9993" fill="none" id="client-to-stripe_pay" style="stroke:#181818;stroke-width:1;"/><polygon fill="#181818" points="1420.09,156.9993,1424.09,147.9993,1420.09,151.9993,1416.09,147.9993,1420.09,156.9993" style="stroke:#181818;stroke-width:1;"/></g><!--link client to crypto_pay--><g class="link" data-entity-1="ent0023" data-entity-2="ent0012" data-link-type="dependency" data-source-line="43" id="lnk29"><path d="M1459.12,78.2193 C1594.08,78.2193 1844,78.2193 1844,78.2193 C1844,78.2193 1844,120.5593 1844,150.7693" fill="none" id="client-to-crypto_pay" style="stroke:#181818;stroke-width:1;"/><polygon fill="#181818" points="1844,156.7693,1848,147.7693,1844,151.7693,1840,147.7693,1844,156.7693" style="stroke:#181818;stroke-width:1;"/></g><!--link client to donations--><g class="link" data-entity-1="ent0023" data-entity-2="ent0015" data-link-type="dependency" data-source-line="44" id="lnk30"><path d="M1458.85,67.2193 C1692.51,67.2193 2334,67.2193 2334,67.2193 C2334,67.2193 2334,117.8393 2334,151.0193" fill="none" id="client-to-donations" style="stroke:#181818;stroke-width:1;"/><polygon fill="#181818" points="2334,157.0193,2338,148.0193,2334,152.0193,2330,148.0193,2334,157.0193" style="stroke:#181818;stroke-width:1;"/></g><!--link client to ai_ty--><g class="link" data-entity-1="ent0023" data-entity-2="ent0017" data-link-type="dependency" data-source-line="45" id="lnk31"><path d="M1459,55.2193 C1797.04,55.2193 3040,55.2193 3040,55.2193 C3040,55.2193 3040,114.6393 3040,150.9293" fill="none" id="client-to-ai_ty" style="stroke:#181818;stroke-width:1;"/><polygon fill="#181818" points="3040,156.9293,3044,147.9293,3040,151.9293,3036,147.9293,3040,156.9293" style="stroke:#181818;stroke-width:1;"/></g><!--link demo_stub to GMN32--><g class="link" data-entity-1="ent0016" data-entity-2="ent0033" data-link-type="association" data-source-line="48" id="lnk34"><path d="M3149.0802,287.2193 C3149.1219,287.2193 3149.1637,287.2193 3149.2057,287.2193 C3149.3736,287.2193 3149.5438,287.2193 3149.7163,287.2193 C3155.235,287.2193 3163.075,287.2193 3172.36,287.2193" fill="none" id="demo_stub-GMN32" style="stroke:#181818;stroke-width:1;stroke-dasharray:7,7;"/></g><?plantuml-src RLHDYzim4BtxLmp9PVVWfYmz10gzk75RABjBavvA2RAiE6fiZLOQ4qpfV-z8oYRs9kGGpPitNqyZ-uCsLZZHWHNo81grfg5Lu9GaOPfMPVvCQBLHD5W5w6YFMKQQcEcTN5YEymjXDUJmTRDv1eSzAGzt3m-muOYrTDeIA4DkiAWD-ViiEzM3MO5E0OEgSO8q6Zy3uK4okhM71kQhPVcXBE1l1l3h-MczWL1f8T6GaFGxSUCv4BwiJdwlX9Fxw4x7YLSgHtgdfI2LCh3z9l-5aMll-milMfDibXNPOQlnNLT7sXd8_eq6NHFBe6PnecArV3kHZ-x5KLLxn4FgF4BRu_ucKpeLkhDYw5ZQSG13aye5wqu8TvxwwfuRACjoUTs0ZAnRQPCdffsec09Ut9ZquYQbFwDvlTLvcBgyAbk_CcAMipNDeZg4q3ty_9RsesPa6v5v-JxyKbgXSzeBSyW7x6C-eRSKkwxw9g-mDpH4dCs0adATDgADM302sFB266sQ_0_spgWK4C5OefUXmPGzdGFiKDITi14-dSC8iiM-vXjeDOi9YnkB7ZrP-eCy_tHUvn5qMk4nAMpic75UbMimtDiuz7AR8_GY_0XCwcK6IK65HDW1xYxQyzpVyPYJwptnPo4w-9dNwP5_PBTN2egdnsBrut7DhuF71ziA4zJbEMjL2QyoZe1G8liF?></g></svg>